<svg width="348" height="460" viewBox="0 0 348 460" fill="none" xmlns="http://www.w3.org/2000/svg">
<path d="M296.619 0.0561145C295.554 0.332759 293.207 1.49478 291.925 2.38006C290.326 3.48683 286.46 7.10201 285.829 8.06116C285.612 8.41166 284.981 9.18634 284.449 9.81349C283.916 10.4406 283.325 11.1968 283.146 11.5104C281.983 13.5024 280.957 15.1072 280.207 16.0847C279.734 16.7119 279.222 17.5419 279.043 17.9292C278.866 18.335 278.176 19.4418 277.486 20.4193C276.815 21.3785 276.006 22.6328 275.71 23.1861C274.921 24.6432 273.896 26.211 272.672 27.7789C272.08 28.5351 271.312 29.7894 270.937 30.5456C270.561 31.3019 270.167 32.095 270.049 32.2979C269.93 32.5007 269.279 33.6628 268.609 34.8986C267.939 36.116 267.091 37.5732 266.715 38.1263C266.34 38.6798 265.887 39.3622 265.709 39.6762C264.703 41.3173 264.191 42.1286 263.52 43.1251C263.125 43.7154 262.376 44.9881 261.883 45.9099C260.166 49.193 258.924 51.2596 258.095 52.2367C257.76 52.6428 256.911 53.9156 256.221 55.0778C254.505 57.9547 253.519 59.4116 252.454 60.6107C251.309 61.9018 250.304 63.1745 249.455 64.4104C249.081 64.9455 248.706 65.4253 248.607 65.4805C248.509 65.5358 248.094 66.0708 247.68 66.6427C247.265 67.2331 246.398 68.3391 245.727 69.0961C243.261 71.9178 240.264 76.0122 239.198 77.9857C238.823 78.6866 237.718 80.2733 236.752 81.5092C235.786 82.7451 234.78 84.0362 234.543 84.3677C234.03 85.0317 230.105 88.3895 228.586 89.4218C227.008 90.5288 226.021 90.8603 223.851 91.0638C221.938 91.248 219.453 91.2848 219.216 91.1559C219.019 91.0454 213.298 92.0041 212.293 92.3181C210.912 92.7601 208.545 93.4241 207.854 93.5908C203.238 94.6784 197.538 95.5644 196.256 95.3986C195.802 95.3424 194.717 95.2503 193.849 95.1766C191.955 95.0477 190.811 94.7337 188.721 93.7934C185.23 92.2076 182.211 90.1963 179.055 87.3378C175.169 83.8143 174.044 82.7635 173.038 81.6381C172.447 80.9742 171.895 80.4207 171.816 80.3838C171.737 80.347 171.342 79.8856 170.928 79.3699C170.513 78.8349 169.764 77.9121 169.232 77.3033C168.718 76.6946 168.009 75.7359 167.673 75.1825C167.338 74.629 167.003 74.1308 166.923 74.0755C166.864 74.0202 166.411 73.4852 165.938 72.8764C165.484 72.2677 164.754 71.4564 164.339 71.0881C163.906 70.7003 163.571 70.3126 163.571 70.2205C163.571 70.1284 163.058 69.5749 162.407 68.9846C160.966 67.6382 158.915 65.3332 158.521 64.6508C158.363 64.3551 157.85 63.5991 157.357 62.9535C156.884 62.3079 156.311 61.3851 156.095 60.9247C155.661 60.0019 153.332 56.1469 153.116 55.9996C153.037 55.9444 152.781 55.5014 152.543 55.0041C152.307 54.4875 151.912 53.8235 151.676 53.5278C151.419 53.2147 150.788 52.2551 150.275 51.407C149.742 50.5404 149.151 49.6728 148.953 49.4703C148.757 49.2677 148.52 48.9352 148.461 48.7326C148.381 48.5106 148.066 47.9949 147.77 47.5704C147.455 47.1458 147.198 46.7591 147.198 46.6854C147.198 46.6292 146.843 45.8915 146.428 45.0618C145.245 42.7374 144.042 40.1551 144.042 39.8972C144.023 39.1043 142.287 34.8802 141.498 33.6997C141.182 33.2386 140.65 32.2979 140.314 31.6339C139.979 30.9698 139.564 30.3058 139.406 30.1767C139.229 30.0292 138.953 29.6787 138.775 29.3652C138.617 29.0516 137.809 27.9634 137.02 26.9489C135.442 24.9568 134.495 23.6287 132.799 20.9542C132.207 20.0136 131.398 18.9068 131.023 18.4826C130.629 18.0769 130.076 17.4312 129.781 17.0438C129.485 16.675 129.15 16.2692 129.011 16.1216C128.853 15.9925 128.439 15.5129 128.064 15.0518C127.275 14.1112 125.125 12.1745 123.883 11.2706C123.409 10.9386 122.107 10.1823 120.963 9.5921C119.839 9.0203 118.399 8.19027 117.787 7.78451C116.426 6.88072 114.158 5.70018 112.678 5.16531C112.087 4.94401 111.14 4.59351 110.587 4.39063C109.385 3.92952 105.696 3.52377 104.335 3.68971C103.211 3.83725 102.046 4.29835 100.33 5.31284C98.6928 6.25357 97.3911 7.93204 95.3596 11.5842C94.0966 13.8898 93.5054 15.2547 92.4596 18.3166C91.7501 20.4193 90.7634 23.2782 90.2904 24.6616C89.8164 26.0451 89.3231 27.7051 89.2048 28.3507C89.1069 28.9963 88.8695 29.9369 88.7124 30.4349C88.5544 30.933 88.4158 31.6155 88.4158 31.9475C88.4158 32.2794 88.2782 32.9434 88.1008 33.4231C87.9225 33.9026 87.6666 35.2122 87.5086 36.3373C87.371 37.4625 87.1142 38.8455 86.9368 39.399C86.7788 39.9525 86.6412 40.6165 86.6412 40.8743C86.6412 41.1331 86.2854 42.5348 85.8716 44.0101C83.3069 53.0296 83.1693 53.5647 82.9919 55.0409C82.9328 55.6681 82.7545 56.5163 82.5974 56.903C82.4588 57.3092 82.2223 58.6003 82.1041 59.7809C81.9858 60.9616 81.7484 62.2711 81.5913 62.6763C81.4527 63.064 81.2754 63.949 81.1969 64.6324C81.1377 65.3148 80.9003 66.4944 80.7035 67.2515C80.5058 68.0076 80.2102 69.8706 80.0522 71.4011C79.8942 72.9133 79.6383 74.5737 79.4609 75.0904C79.3029 75.5886 79.0665 76.9166 78.9482 78.041C78.829 79.148 78.5925 80.4759 78.4345 80.9926C78.2775 81.4908 77.8433 84.9028 77.4682 88.5552C77.094 92.2076 76.6598 95.6565 76.5018 96.2099C76.2256 97.187 75.9096 98.5702 75.0024 102.574C74.7659 103.587 74.4111 104.989 74.2134 105.709C73.9963 106.41 73.4836 108.292 73.0503 109.859C71.8068 114.396 71.5111 115.466 69.9526 120.372C69.5978 121.534 69.2034 122.992 69.1045 123.6C69.0066 124.209 68.8282 124.947 68.6906 125.26C68.5724 125.556 68.1973 128.415 67.8823 131.624C66.9944 140.386 67.1321 141.916 69.8935 152.19C70.2094 153.408 71.0381 155.732 71.7476 157.355C72.4387 158.978 73.2073 160.841 73.4448 161.505C73.6813 162.169 74.036 163.017 74.2338 163.387C74.5691 164.013 74.5691 164.106 74.2929 164.733C73.8189 165.802 73.5427 168.495 73.8189 169.363C74.2725 170.764 74.3908 174.158 74.0952 176.999C73.9575 178.474 73.7802 181.296 73.7404 183.27C73.6416 187.383 73.0503 192.991 72.5366 194.613C71.1961 198.985 69.184 203.837 68.0199 205.57C67.7243 205.994 67.2309 206.953 66.9353 207.692C66.6193 208.429 66.1066 209.406 65.7906 209.849C65.1596 210.716 64.1729 212.487 63.2463 214.442C62.9304 215.106 62.122 216.637 61.4319 217.835C60.7408 219.035 59.9722 220.529 59.7154 221.156C59.4585 221.784 58.4534 224.015 57.4667 226.136C56.48 228.239 55.534 230.452 55.3557 231.024C55.1783 231.596 54.8235 232.426 54.587 232.887C53.9948 233.994 52.1009 239.343 51.5494 241.464C51.3119 242.368 50.9969 243.53 50.8389 244.046C50.7013 244.544 50.523 245.337 50.4445 245.798C50.3853 246.26 50.1488 247.366 49.9317 248.289C49.734 249.192 49.2416 253.139 48.8665 257.05C48.4914 260.961 48.1163 264.649 48.0572 265.258C47.8207 267.343 47.9593 274.72 48.2743 276.879C48.314 277.173 48.3926 278.428 48.472 279.645C48.5312 280.863 48.6097 282.191 48.6688 282.596C48.7279 283.002 48.8074 283.998 48.8665 284.81C48.9257 285.621 49.103 287.023 49.261 287.945C49.419 288.849 49.5964 290.103 49.6555 290.712C49.734 291.321 49.8522 292.317 49.9511 292.926C50.2865 295.028 50.0306 303.808 49.4781 309.433C49.1815 312.33 48.8268 315.096 48.6688 315.613C48.5312 316.111 48.3334 316.941 48.2743 317.457C48.1367 318.342 47.841 319.634 46.9726 323.083C45.5924 328.524 44.5466 331.715 42.673 336.032C42.1205 337.323 41.6669 338.448 41.6669 338.522C41.6669 338.595 41.3703 339.131 40.9962 339.701C40.6405 340.255 40.1481 341.178 39.931 341.75C39.6935 342.322 38.8067 343.852 37.9586 345.162C36.084 348.02 34.5652 350.677 34.0127 352.042C33.7956 352.614 33.0658 353.886 32.3951 354.9C31.0149 356.966 30.3839 358.091 30.0282 359.125C29.8905 359.511 29.496 360.305 29.1209 360.876C28.7662 361.448 28.2331 362.463 27.9569 363.164C27.6816 363.846 27.1291 365.045 26.6949 365.838C26.281 366.613 25.7877 367.72 25.5899 368.273C25.3932 368.827 25.0375 369.675 24.7816 370.136C24.5451 370.598 24.0915 371.667 23.7949 372.534C23.5187 373.382 23.1048 374.379 22.9274 374.729C22.7297 375.08 21.9407 377.035 21.1518 379.064C20.3628 381.092 19.4749 383.38 19.1793 384.136C18.8633 384.892 18.4689 386.091 18.2915 386.81C18.1141 387.511 17.6799 388.931 17.3251 389.946C16.9704 390.96 16.4179 392.492 16.1223 393.358C15.8257 394.225 15.3925 395.258 15.1356 395.664C14.4649 396.77 12.6107 401.843 11.9991 404.241C11.7035 405.403 11.2896 407.026 11.0725 407.819C10.8554 408.723 10.4212 412.246 9.98695 416.765C9.27746 424.253 9.27745 424.253 8.62611 425.581C8.25101 426.32 7.69951 427.242 7.38354 427.611C7.06756 427.998 6.1807 429.436 5.39173 430.802C4.62215 432.167 3.71492 433.753 3.37956 434.306C1.88013 436.87 0.814928 439.101 0.637555 440.024C0.20333 442.404 -0.151427 447.365 0.0656855 448.288C0.361307 449.652 1.86075 451.939 3.35921 453.36C5.84534 455.72 10.6189 457.99 16.0041 459.391C17.7594 459.853 19.3964 460.055 26.1822 460.682C33.3033 461.328 34.5061 461.494 36.242 461.973C37.3266 462.288 39.3785 462.878 40.7791 463.265C44.2509 464.261 48.7279 465.792 49.3793 466.235C49.6749 466.437 50.3059 466.751 50.7798 466.954C51.845 467.397 55.7114 469.72 57.3087 470.883C57.9794 471.362 59.1629 472.137 59.9131 472.617C60.6817 473.096 61.6878 473.797 62.1811 474.202C62.6745 474.59 63.4634 475.107 63.9568 475.346C64.4492 475.586 65.1596 476.084 65.5347 476.453C65.9089 476.84 66.9741 477.615 67.9016 478.168C68.8283 478.721 70.1503 479.626 70.8608 480.142C72.557 481.396 75.1797 482.854 76.7974 483.426C77.5079 483.683 78.4743 484.071 78.9676 484.292C79.9339 484.772 83.8788 486.321 86.9368 487.465C90.744 488.866 92.5982 489.457 94.8856 489.992C97.805 490.656 102.618 492.002 107.569 493.533C108.516 493.828 109.463 494.068 109.7 494.068C109.917 494.068 110.923 494.308 111.929 494.621C115.657 495.728 126.703 498.163 130.432 498.697C133.272 499.103 135.994 499.675 138.48 500.358C143.983 501.907 145.363 502.129 152.149 502.737C160.375 503.457 159.96 503.401 161.322 503.714C161.953 503.88 162.88 504.047 163.373 504.102C164.971 504.305 171.106 505.467 173.827 506.076C174.637 506.26 177.358 506.574 179.844 506.776C182.349 506.997 184.874 507.293 185.466 507.459C186.057 507.625 189.489 508.031 193.06 508.362C198.426 508.842 200.201 508.934 203.12 508.879C205.073 508.842 211.07 508.787 216.435 508.75C221.8 508.713 227.087 508.584 228.171 508.474C231.249 508.178 232.925 508.086 238.232 507.994C240.954 507.939 243.972 507.828 244.938 507.717C245.925 507.625 247.621 507.459 248.746 507.367C249.849 507.256 250.836 507.146 250.915 507.109C250.994 507.053 251.585 506.961 252.237 506.905C257.069 506.407 259.871 505.762 262.376 504.582C263.224 504.176 264.013 503.843 264.111 503.843C264.23 503.843 264.881 503.493 265.591 503.05C266.301 502.627 267.8 501.944 268.924 501.557C272.002 500.523 272.89 500.081 274.29 498.974L275.572 497.978L278.689 497.757C282.357 497.518 283.107 497.388 284.784 496.65C285.474 496.337 286.164 496.096 286.303 496.096C286.974 496.078 292.753 493.847 293.463 493.33C293.581 493.256 294.114 492.961 294.646 492.666C295.199 492.39 295.948 492.002 296.323 491.8C296.698 491.596 297.27 491.228 297.586 490.987C297.921 490.729 298.888 490.213 299.755 489.844C300.643 489.457 302.36 488.498 303.582 487.686C304.805 486.893 306.501 485.841 307.35 485.362C309.047 484.403 311.631 482.023 312.301 480.787C312.538 480.345 312.913 478.869 313.208 477.228C313.721 474.48 313.721 474.388 313.405 472.488C313.248 471.418 313.05 470.09 312.991 469.536C312.794 467.876 312.301 465.22 312.005 464.169C311.848 463.616 311.532 462.306 311.315 461.236C310.289 456.274 309.106 452.272 307.764 449.431C307.133 448.066 306.541 446.682 306.462 446.388C306.383 446.074 306.107 445.391 305.851 444.838C305.594 444.285 305.161 442.976 304.885 441.924C304.45 440.208 304.155 439.489 303.128 437.81C302.458 436.704 301.452 434.619 301.176 433.753C300.998 433.218 300.288 431.65 299.578 430.267C298.867 428.884 298.296 427.685 298.296 427.611C298.296 427.536 297.842 426.541 297.289 425.397C296.165 423.054 294.252 417.816 293.956 416.138C293.838 415.529 293.522 414.146 293.246 413.076C292.99 412.006 292.773 410.881 292.773 410.568C292.773 410.273 292.634 409.608 292.477 409.129C292.319 408.631 292.142 407.653 292.083 406.934C291.964 405.772 291.273 402.175 290.8 400.367C290.347 398.56 290.347 398.652 290.859 398.745C291.332 398.837 292.121 398.745 297.507 397.988C300.82 397.527 301.609 397.342 305.101 396.181C307.587 395.35 310.684 393.856 312.104 392.805C313.09 392.067 317.37 387.973 318.771 386.423C321.315 383.638 322.538 381.35 323.998 376.758C324.61 374.858 325.241 369.158 325.044 367.37C324.807 365.322 324.018 362.038 322.893 358.59C322.302 356.763 321.75 354.992 321.671 354.661C321.336 353.129 318.632 348.796 316.423 346.232C315.989 345.715 315.398 344.885 315.122 344.387C314.175 342.671 311.157 338.688 308.553 335.718C305.358 332.048 304.923 331.568 304.134 330.59C303.78 330.166 302.024 328.469 300.229 326.809C297.013 323.839 296.954 323.747 295.239 320.998C293.581 318.287 293.167 317.235 293.266 316.056C293.364 315.17 293.699 313.934 294.114 313.123C294.331 312.661 294.686 311.924 294.923 311.462C295.494 310.264 297.072 307.589 297.605 306.943C297.842 306.63 298.651 305.394 299.42 304.177C300.17 302.959 301.176 301.355 301.669 300.636C302.596 299.196 304.923 296.522 305.831 295.803L306.403 295.378L307.942 295.969C308.79 296.283 310.013 296.596 310.644 296.651C311.295 296.706 312.38 296.91 313.09 297.094C315.871 297.85 319.106 297.647 324.807 296.338C327.331 295.748 327.865 295.563 331.1 294.142C332.046 293.737 332.875 293.386 332.934 293.386C333.25 293.386 336.327 291.837 337.175 291.265C337.688 290.896 338.477 290.214 338.911 289.716C339.857 288.665 342.284 284.939 342.738 283.85C342.915 283.427 343.369 282.522 343.763 281.84C344.138 281.139 344.453 280.493 344.453 280.401C344.453 280.199 345.301 278.022 346.564 274.997C347.314 273.171 347.452 272.581 347.728 270.201C348.182 266.18 348.083 265.276 346.427 258.894C346.189 258.027 345.854 256.626 345.637 255.741C345.242 254.025 344.296 251.701 343.546 250.668L343.073 250.023L343.921 248.51C344.947 246.72 345.637 245.134 346.248 243.124C346.88 241.04 346.9 236.963 346.269 234.178C345.637 231.393 345.124 229.604 344.533 228.258C342.856 224.384 342.225 223.332 340.232 221.175C338.279 219.071 333.802 215.051 332.421 214.166C331.711 213.723 330.883 213.132 330.547 212.856C330.231 212.597 329.423 212.025 328.772 211.62C328.12 211.196 327.43 210.734 327.253 210.568C327.055 210.403 326.385 210.033 325.754 209.757C324.747 209.296 324.492 209.075 323.564 207.747C322.992 206.916 322.223 205.847 321.868 205.349C321.493 204.869 321.059 204.039 320.901 203.486C320.625 202.601 320.625 202.416 320.882 201.715C321.039 201.273 321.277 200.184 321.374 199.261C321.493 198.358 321.671 197.473 321.769 197.288C321.868 197.122 322.026 196.513 322.125 195.978C322.243 195.426 322.46 194.485 322.617 193.876C322.795 193.267 323.11 190.906 323.347 188.619C324.018 181.665 323.682 177.073 322.104 171.631C321 167.906 320.585 166.172 320.191 163.589L319.817 161.136L320.309 156.396C321.138 148.28 321.02 146.454 319.422 142.599C318.238 139.703 316.719 137.73 313.544 134.87C311.789 133.321 311.669 133.044 312.183 131.937C312.538 131.144 314.373 129.522 317.331 127.345C320.053 125.353 322.262 123.048 323.229 121.203C323.861 120.004 323.939 119.671 324.255 116.592C324.61 113.142 324.669 108.919 324.452 104.325C324.274 100.378 323.958 96.1547 323.722 94.3653C323.387 91.912 323.367 91.7646 323.249 90.4551C323.011 87.9833 322.163 83.2617 321.395 80.2549C320.763 77.7831 320.566 76.6762 319.994 72.3239C319.52 68.7084 318.968 65.37 318.377 62.5474C317.824 59.8914 316.957 55.4277 315.852 49.6176C315.654 48.4738 315.339 47.2195 315.162 46.8143C314.806 46.0214 314.274 44.1768 313.11 39.7683C311.394 33.3677 310.723 30.9514 310.545 30.4903C310.171 29.5865 308.967 24.1636 308.652 22.061C308.376 20.1057 308.04 18.3166 307.251 14.4062C306.817 12.2297 306.245 10.5882 305.18 8.41166C304.667 7.34182 304.056 5.82939 303.819 5.01778C303.05 2.26946 302.458 1.4026 300.88 0.590986C300.091 0.203645 299.538 0.0744336 298.434 0.0191823C297.645 -0.0176519 296.836 0.000669386 296.619 0.0561145ZM112.007 32.2057C112.383 32.759 112.836 33.6813 112.994 34.2346C113.152 34.788 113.645 36.0791 114.059 37.0936C114.473 38.1079 114.907 39.3806 115.026 39.9157C115.42 41.705 117.531 46.0582 119.01 48.087C119.425 48.6589 120.115 49.8202 120.549 50.6693C120.983 51.5175 121.674 52.7165 122.088 53.3252C122.522 53.934 123.014 54.8005 123.212 55.2435C123.389 55.7049 123.725 56.2768 123.922 56.5531C124.317 57.0513 126.092 60.5002 126.092 60.7396C126.092 60.8326 126.289 61.1826 126.545 61.5335C126.802 61.8834 127.295 62.843 127.67 63.6543C128.025 64.4657 128.696 65.7015 129.169 66.3839C129.642 67.0663 130.156 67.897 130.293 68.2286C130.451 68.561 131.201 69.8522 131.951 71.1249C132.719 72.3976 133.41 73.6335 133.489 73.8913C133.687 74.5001 134.988 76.8429 135.935 78.3182C136.704 79.4988 137.414 80.4207 139.308 82.7451C139.84 83.4091 140.61 84.4046 141.005 84.9581C141.418 85.5116 142.445 86.6553 143.293 87.4851C144.141 88.3332 145.166 89.4955 145.58 90.0674C146.291 91.1007 155.641 100.065 157.456 101.467C157.949 101.836 158.718 102.444 159.192 102.795C160.69 103.957 163.058 106.907 163.531 108.18C163.767 108.807 163.729 108.882 162.782 110.21C161.124 112.552 159.31 114.341 157.751 115.171C155.68 116.259 153.471 117.827 150.788 120.096C149.111 121.498 145.639 127.53 143.569 132.584C143.154 133.579 142.76 134.427 142.681 134.483C142.602 134.52 142.424 134.372 142.306 134.151C142.03 133.671 141.005 131.052 140.471 129.485C139.722 127.271 136.054 120.963 135.086 120.206C134.909 120.078 134.396 119.321 133.943 118.547C132.818 116.666 129.977 113.88 128.479 113.253C127.275 112.737 124.494 112.349 123.193 112.515C122.305 112.625 121.16 113.124 120.47 113.677C119.425 114.525 118.379 116.425 118.103 117.957C118.025 118.399 117.846 119.026 117.709 119.34C117.156 120.576 116.781 126.588 116.88 132.343L116.998 137.803L116.209 139.648C115.776 140.662 115.283 141.677 115.085 141.898C114.77 142.286 114.711 142.304 114.178 142.045C112.895 141.418 111.495 141.179 109.463 141.252C107.51 141.308 107.412 141.326 106.465 141.972C104.828 143.06 103.428 145.661 102.46 149.424C102.342 149.829 102.066 150.825 101.829 151.637C101.593 152.448 101.356 153.316 101.297 153.573C101.257 153.832 101.119 154.385 101.001 154.809L100.784 155.602L100.232 155.289C99.3635 154.809 95.3789 150.77 94.2944 149.295C93.7613 148.556 93.1303 147.69 92.8744 147.358C92.3219 146.656 91.6706 144.96 90.5269 141.215C89.4423 137.73 89.0672 135.737 88.9092 132.731C88.7716 130.186 89.1854 125.426 89.6584 124.154C89.8164 123.748 89.9938 122.918 90.0733 122.309C90.1518 121.701 90.3495 120.834 90.4871 120.372C90.744 119.598 91.1579 118.159 91.8877 115.485C92.0457 114.876 92.3219 113.953 92.4596 113.456C92.6176 112.939 92.7949 112.165 92.8744 111.704C92.9529 111.242 93.3077 109.877 93.6634 108.66C94.0375 107.461 94.3341 106.281 94.3341 106.059C94.3341 105.82 94.59 104.989 94.906 104.196C95.221 103.403 95.5369 102.388 95.5961 101.928C95.6755 101.467 95.9905 100.396 96.3065 99.5299C96.6215 98.6633 97.016 97.5011 97.174 96.9476C97.6867 95.2687 98.2983 93.2215 98.5949 92.2445C98.7326 91.7278 99.0485 90.7498 99.2647 90.0489C99.4818 89.3665 99.6592 88.5736 99.6592 88.2964C99.6592 88.0386 99.8171 87.2825 100.034 86.6185C100.232 85.9545 100.468 84.6634 100.547 83.759C100.626 82.8372 101.04 80.8084 101.454 79.24C101.869 77.6727 102.224 76.1605 102.224 75.9017C102.224 75.6254 102.362 75.0535 102.519 74.6106C102.698 74.1676 102.914 73.3378 102.993 72.7844C103.092 72.2309 103.289 71.2722 103.466 70.6635C103.624 70.0547 103.822 68.9662 103.881 68.247C103.94 67.5462 104.118 66.6612 104.276 66.3103C104.413 65.9603 104.65 64.7613 104.749 63.6543C104.867 62.5289 105.084 61.2931 105.242 60.8879C105.4 60.4817 105.577 59.652 105.656 59.0433C105.735 58.4345 105.913 57.568 106.071 57.1066C106.208 56.6452 106.426 55.5935 106.544 54.7453C106.662 53.9156 106.839 53.0674 106.958 52.8823C107.195 52.4403 107.353 51.0929 108.24 41.7971C108.714 36.9275 109.088 33.9026 109.326 33.1279C109.522 32.4639 109.739 31.3571 109.818 30.6563C109.877 29.9554 109.996 29.2913 110.055 29.1991C110.114 29.0884 110.429 29.5127 110.745 30.1029C111.041 30.6932 111.613 31.6523 112.007 32.2057ZM295.692 32.7036C296.165 34.6404 296.462 36.9829 296.619 40.1367C296.797 43.3645 297.349 46.667 298.177 49.3045C298.552 50.5404 298.907 51.942 298.966 52.4403C299.025 52.9191 299.124 53.7866 299.183 54.3392C299.243 54.8926 299.381 55.8891 299.499 56.5531C299.618 57.2171 299.776 58.4161 299.874 59.2274C299.972 60.0203 300.249 61.3115 300.485 62.0869C300.723 62.843 301.156 64.2999 301.472 65.3148C302.044 67.2331 302.122 67.6014 302.339 69.2803C302.419 69.8338 302.497 70.331 302.537 70.3872C302.556 70.4425 302.655 70.9766 302.714 71.5853C303.01 74.186 303.267 75.6623 303.622 76.713C303.819 77.3402 304.096 78.3182 304.214 78.8717C304.351 79.4252 304.667 80.4759 304.904 81.1768C305.377 82.5794 305.456 82.9293 305.792 85.7888C305.91 86.8027 306.186 88.7578 306.383 90.1226C307.311 96.4125 307.192 102.038 306.048 105.598C305.771 106.465 305.436 107.683 305.298 108.292C305.18 108.9 304.885 109.877 304.647 110.468C304.411 111.058 304.115 111.925 303.997 112.404C303.642 113.953 302.458 116.425 300.9 118.915C298.592 122.605 298.513 122.715 296.283 124.707C293.956 126.809 292.891 128.082 292.102 129.743C291.214 131.642 290.938 134.446 291.49 136.143C291.648 136.641 291.747 137.066 291.727 137.084C291.708 137.103 291.115 136.807 290.406 136.419C287.959 135.073 280.425 128.507 278.235 125.814C277.564 125.003 275.947 123.342 274.626 122.125C272.061 119.764 269.359 116.887 268.57 115.669C268.293 115.263 267.741 114.599 267.327 114.194C266.912 113.788 266.262 112.958 265.887 112.349C265.512 111.74 264.644 110.394 263.954 109.342C263.263 108.292 262.435 107.056 262.119 106.576C261.824 106.096 261.33 105.45 261.035 105.156C260.738 104.842 259.772 103.238 258.884 101.595C257.74 99.493 256.911 98.2571 256.162 97.4642C255.038 96.2836 255.038 96.2836 255.215 95.2687C255.314 94.7337 255.61 94.4206 256.892 93.4241C258.016 92.576 258.983 91.5805 260.284 89.9384C262.632 87.0053 264.782 84.2388 266.045 82.56C266.597 81.8407 267.544 80.6048 268.175 79.8304C268.806 79.0559 269.614 77.9857 269.99 77.4885C270.344 76.9718 270.858 76.3815 271.134 76.1411C271.39 75.9017 272.179 74.8878 272.869 73.8729C273.56 72.858 274.961 70.9766 275.967 69.7039C276.953 68.4311 277.781 67.3436 277.781 67.2515C277.781 67.1768 278.117 66.7164 278.531 66.2182C279.281 65.3148 280.03 64.0236 283.107 58.2504C284.508 55.6119 285.909 52.3656 286.776 49.7281C286.915 49.2677 287.546 48.087 288.137 47.0906C288.748 46.1135 289.4 44.8592 289.597 44.3241C289.794 43.8075 290.208 42.8672 290.505 42.2585C291.235 40.727 292.694 37.2595 293.148 35.95C293.838 34.0317 295.1 31.1174 295.278 31.099C295.298 31.099 295.475 31.8183 295.692 32.7036ZM243.715 127.769C246.398 130.628 248.805 134.483 250.087 137.969C251.862 142.746 251.98 143.207 252.651 147.395C252.828 148.501 253.144 150.272 253.342 151.324C253.538 152.374 253.716 153.481 253.716 153.795C253.716 154.09 253.854 154.901 254.012 155.584C254.387 157.171 255.097 160.841 255.215 161.782C255.393 163.22 255.886 164.954 257.168 168.607C257.898 170.635 258.647 173.033 258.865 173.955C259.062 174.859 259.417 176.243 259.634 176.999C259.851 177.755 260.147 178.88 260.305 179.489C261.252 183.344 263.52 187.457 266.518 190.814C267.939 192.419 268.629 193.009 269.99 193.857C271.253 194.632 271.943 194.854 273.718 195.001C275.611 195.167 276.756 194.983 277.703 194.411C279.399 193.378 280.089 191.902 280.227 189.099C280.287 187.753 280.207 187.218 279.832 186.147C279.201 184.284 278.077 181.352 277.88 181.038C277.703 180.743 276.558 179.083 275.789 177.994C275.493 177.571 275.197 177.036 275.118 176.795C275.02 176.556 274.744 176.021 274.487 175.634C274.211 175.246 273.837 174.472 273.639 173.955C273.442 173.42 273.145 172.775 272.988 172.535C272.81 172.313 272.495 171.318 272.259 170.358C272.021 169.399 271.706 168.311 271.568 167.961C271.074 166.707 270.502 163.774 270.404 161.966C270.344 160.952 270.246 159.919 270.187 159.661C270.088 159.199 269.97 157.594 269.793 154.219C269.694 152.319 269.654 152.061 269.181 149.718C269.043 148.962 268.945 148.317 268.983 148.28C269.082 148.169 271.824 149.645 272.869 150.382C273.422 150.77 274.388 151.508 275 152.024C277.781 154.385 279.912 155.639 282.673 156.543C286.145 157.687 288.867 158.351 290.978 158.572C292.872 158.793 293.068 158.848 293.542 159.347C293.819 159.661 294.41 160.251 294.863 160.656C295.298 161.081 295.968 161.782 296.323 162.243C296.698 162.703 297.428 163.553 297.96 164.124C298.493 164.715 298.867 165.194 298.808 165.194C298.73 165.194 298.158 164.991 297.527 164.733C296.186 164.217 292.497 163.792 290.484 163.958C289.104 164.051 287.131 164.825 285.81 165.784C284.547 166.688 283.167 168.072 282.732 168.864C281.844 170.488 281.509 176.87 282.2 179.304C283.226 182.993 284.409 186 285.652 188.066C286.046 188.73 286.48 189.504 286.618 189.8C287.624 191.939 291.786 196.513 294.587 198.524C295.494 199.188 297.23 200.46 298 201.032C298.335 201.291 298.947 201.678 299.381 201.918C300.071 202.287 301.294 203.098 303.523 204.611C303.839 204.832 304.608 205.349 305.2 205.736C306.541 206.603 308.178 207.802 310.21 209.425C311.631 210.55 312.498 211.288 315.319 213.723L316.286 214.534L314.135 214.368C311.808 214.184 309.54 214.387 307.074 215.014C306.324 215.198 304.805 215.512 303.72 215.715C302.636 215.899 301.176 216.194 300.466 216.36C299.755 216.526 298.296 216.822 297.211 217.006C296.126 217.208 294.863 217.504 294.39 217.651C293.917 217.817 293.089 217.984 292.516 218.057C291.944 218.131 291.195 218.297 290.82 218.426C290.465 218.574 290.031 218.685 289.873 218.685C289.379 218.685 285.099 220.436 283.107 221.451C280.878 222.595 278.176 224.587 276.223 226.542C273.797 228.958 272.633 231.651 272.16 235.839C271.824 238.937 271.883 239.619 272.633 241.537C274.27 245.725 277.307 249.451 284.922 256.681C285.514 257.234 286.736 258.267 287.644 258.987C288.552 259.688 289.617 260.573 290.011 260.924C292.121 262.842 293.621 263.782 297.27 265.498C298.829 266.236 300.505 267.102 301.018 267.435C301.531 267.766 302.122 268.117 302.339 268.246C304.431 269.427 305.397 269.999 305.476 270.109C305.614 270.312 304.549 274.038 303.858 275.772C302.892 278.188 302.655 278.649 301.669 280.107C301.136 280.863 300.466 281.895 300.17 282.412C299.499 283.519 295.574 287.208 294.351 287.909C293.562 288.332 292.299 288.923 290.307 289.79C289.419 290.177 286.757 290.989 284.882 291.45C283.956 291.69 282.555 292.058 281.747 292.261C279.853 292.778 276.183 293.386 274.902 293.386C274.349 293.386 273.422 293.46 272.83 293.553C272.238 293.645 271.272 293.774 270.68 293.829C270.088 293.885 269.339 293.977 269.004 294.013C268.688 294.069 268.135 294.142 267.8 294.199C267.445 294.235 264.841 294.069 261.982 293.829C257.721 293.46 256.3 293.257 254.209 292.759C252.809 292.409 251.112 292.077 250.461 292.003C249.258 291.893 248.075 291.635 243.656 290.601C242.295 290.287 240.737 289.956 240.165 289.882C237.6 289.513 231.565 287.521 227.284 285.639C220.814 282.799 218.447 281.361 212.785 276.859C211.385 275.753 209.471 274.259 208.545 273.558C207.617 272.857 206.828 272.248 206.769 272.193C206.71 272.119 206.098 271.621 205.389 271.068C204.678 270.515 204.067 269.999 204.008 269.943C203.672 269.574 199.491 266.715 198.247 266.015C197.439 265.553 195.092 264.502 193.041 263.672C190.989 262.842 188.109 261.643 186.649 261.016C181.935 258.95 180.416 258.544 175.899 258.12C171.54 257.714 170.908 257.751 168.108 258.655C164.734 259.743 162.742 261.126 162.21 262.749C161.795 264.06 161.361 269.002 161.48 271.068C161.657 274.167 162.525 276.011 165.089 278.63C167.338 280.936 169.35 283.278 171.855 286.469C173.097 288.038 174.795 289.937 176.905 292.077C178.266 293.478 179.331 295.065 180.752 297.813C181.422 299.086 182.152 300.488 182.389 300.949C183.079 302.222 184.657 304.62 185.545 305.726C186.728 307.165 187.3 308.069 188.129 309.821C188.543 310.669 189.115 311.703 189.391 312.108C189.668 312.514 190.101 313.252 190.358 313.768C190.614 314.266 191.029 314.949 191.284 315.262C191.561 315.594 192.429 317.329 193.237 319.135C195.112 323.378 195.901 324.853 197.241 326.569C197.834 327.344 199.096 329.096 200.063 330.461C201.681 332.767 203.535 335.035 206.79 338.688C208.584 340.661 212.648 344.202 214.502 345.364C217.48 347.246 221.208 349.164 226.12 351.378C229.809 353.037 230.637 353.278 233.655 353.536L236.377 353.757L236.792 354.514C237.522 355.842 239.119 357.944 240.302 359.106C240.934 359.733 241.407 360.324 241.348 360.416C241.19 360.655 238.251 360.361 237.087 359.991C236.516 359.807 235.391 359.364 234.583 359.014C233.773 358.663 232.531 358.183 231.82 357.962C230.282 357.446 225.252 355.601 224.424 355.251C224.108 355.122 223.319 354.827 222.668 354.624C221.267 354.181 217.974 352.539 216.297 351.452C211.76 348.518 210.222 347.486 208.762 346.379C207.854 345.697 206.691 344.811 206.178 344.442C205.664 344.073 203.396 342.063 201.128 339.96C198.859 337.858 196.414 335.699 195.703 335.164C194.993 334.612 193.967 333.726 193.435 333.172C192.902 332.619 191.541 331.421 190.398 330.516C188.346 328.857 187.063 327.602 185.604 325.776C185.19 325.26 184.164 324.134 183.315 323.268C182.488 322.4 181.186 320.943 180.436 320.04C179.706 319.117 177.753 316.867 176.116 315.004C174.479 313.159 172.644 310.891 172.053 309.987C170.829 308.142 168.206 304.583 166.786 302.83C165.642 301.41 161.993 297.905 160.907 297.168C160.474 296.873 159.704 296.301 159.211 295.876C158.718 295.47 157.711 294.659 156.943 294.087C155.127 292.685 150.197 288.001 146.251 283.905C144.673 282.264 141.754 282.338 140.136 284.054C139.387 284.865 138.834 286.488 138.992 287.484C139.229 289.108 139.308 289.2 146.586 296.209C148.303 297.868 150.808 300.009 153.254 301.909C156.548 304.491 157.85 305.597 158.876 306.704C160.059 307.958 163.413 312.422 165.129 314.986C165.72 315.871 167.298 317.807 168.64 319.32C169.981 320.833 171.599 322.677 172.211 323.433C174.498 326.237 174.952 326.772 176.984 328.949C178.128 330.166 179.765 331.973 180.633 332.951C181.501 333.947 182.743 335.164 183.395 335.662C184.045 336.179 185.643 337.562 186.945 338.743C188.247 339.923 189.668 341.141 190.101 341.436C190.516 341.75 192.252 343.28 193.948 344.848C199.688 350.216 202.529 352.502 206.67 355.103C207.44 355.583 208.584 356.357 209.235 356.819C210.754 357.926 212.135 358.755 214.462 360.01C216.869 361.282 218.072 361.817 221.465 363.053C222.984 363.607 224.798 364.271 225.509 364.529C227.008 365.082 228.981 365.765 230.242 366.189C230.736 366.336 231.565 366.669 232.097 366.927C233.3 367.499 235.588 368.199 236.752 368.365C237.916 368.531 245.254 368.716 248.489 368.661L251.053 368.606L253.144 370.708C256.813 374.36 257.385 374.968 259.042 376.924C260.364 378.492 260.64 378.898 260.462 379.137C260.344 379.303 260.048 379.801 259.792 380.244C259.16 381.369 258.234 382.014 256.182 382.753C253.006 383.896 251.309 384.136 244.839 384.412C241.861 384.541 239.928 384.892 238.863 385.482C238.172 385.869 236.062 387.53 233.419 389.744C232.708 390.333 231.407 391.329 230.538 391.938C229.671 392.547 228.527 393.432 227.974 393.912C226.751 395 222.136 397.84 221.07 398.154C220.636 398.283 219.571 398.412 218.704 398.412C216.198 398.449 215.133 397.84 211.484 394.447C210.222 393.266 208.682 391.938 208.032 391.495C207.4 391.053 206.592 390.481 206.237 390.204C205.014 389.245 202.41 388.692 197.893 388.452C195.96 388.359 195.526 388.396 191.482 389.172L187.143 390.001L184.283 389.744L181.422 389.485L179.153 388.194C176.51 386.7 173.196 384.191 172.348 383.011C172.032 382.568 171.243 381.609 170.593 380.908C169.567 379.764 169.034 378.879 167.811 376.297C167.614 375.891 167.081 374.563 166.608 373.309C165.465 370.265 164.754 368.882 163.432 367C162.17 365.174 159.29 362.463 158.027 361.873C156.311 361.08 154.536 360.361 153.096 359.918C151.419 359.383 149.033 358.442 146.567 357.354C144.713 356.524 144.812 356.598 141.872 353.056C138.796 349.33 137.434 346.859 134.259 339.131C133.765 337.968 133.272 336.861 133.114 336.64C132.976 336.437 132.621 335.736 132.345 335.072C131.852 333.928 131.26 332.637 129.781 329.446C127.473 324.448 126.013 323.009 122.739 322.548C119.7 322.124 118.182 322.124 116.131 322.53C115.046 322.751 113.586 323.157 112.876 323.452C112.165 323.729 111.357 324.005 111.061 324.079C110.587 324.189 110.509 324.134 110.509 323.784C110.509 323.544 110.607 323.065 110.706 322.714C110.824 322.363 111.14 321.312 111.397 320.39C111.672 319.449 112.146 318.121 112.461 317.421C113.152 315.908 113.448 313.86 113.369 311.094C113.31 308.512 112.796 307.092 110.212 302.277C109.108 300.174 108.083 298.127 107.944 297.721C107.807 297.315 107.491 296.559 107.254 296.061C105.932 293.386 104.532 290.712 104.137 290.103C103.624 289.347 102.401 286.414 101.139 282.873C100.665 281.6 99.758 279.608 99.0873 278.446C96.0894 273.19 94.6491 269.777 93.8407 266.033C93.801 265.848 93.6634 265.073 93.5451 264.299C93.4463 263.543 93.3077 262.86 93.2689 262.787C93.2098 262.712 93.1303 262.16 93.0518 261.569C92.9927 260.961 92.854 260.093 92.7358 259.633C92.539 258.747 92.1639 253.195 92.2628 252.55C92.3016 252.328 92.3811 251.48 92.4596 250.632C92.5187 249.782 92.7164 248.824 92.8541 248.51C92.9927 248.178 93.17 247.404 93.2485 246.813C93.4065 245.392 94.5115 242.423 95.6552 240.339C96.1485 239.435 97.016 237.812 97.5888 236.742C99.4227 233.312 103.526 227.372 105.341 225.509C107.885 222.89 111.574 217.872 112.067 216.36C112.165 216.066 112.6 215.069 113.034 214.166C113.467 213.243 113.862 212.247 113.941 211.933C114.059 211.473 114.217 211.325 114.651 211.232C114.967 211.177 115.716 210.697 116.348 210.126C117.215 209.351 117.768 209.02 118.873 208.669C121.417 207.857 124.849 207.175 129.15 206.621C130.451 206.456 132.325 206.197 133.291 206.05C134.278 205.902 136.625 205.643 138.519 205.496C140.412 205.33 142.148 205.183 142.385 205.128C142.602 205.091 143.273 204.998 143.865 204.943C149.191 204.389 153.708 202.785 156.469 200.442C158.264 198.93 159.566 196.827 160.217 194.374L160.434 193.6H164.951C167.476 193.6 169.686 193.526 169.981 193.414C170.415 193.267 170.612 193.304 171.125 193.673C172.19 194.411 173.492 194.761 174.755 194.669C175.742 194.595 176.195 194.411 178.01 193.359C179.193 192.695 180.653 191.81 181.264 191.386C181.895 190.962 183.276 190.094 184.342 189.449L186.255 188.287L186.373 188.785C187.004 191.551 189.095 194.208 192.035 195.941C194.895 197.657 196.078 198.008 198.977 198.026C200.891 198.026 204.56 196.772 205.921 195.647C206.355 195.296 206.868 195.093 207.539 195.001C210.281 194.669 213.298 193.71 216.79 192.105C219.67 190.758 220.084 190.445 220.873 188.988C221.307 188.195 221.366 186.074 220.991 185.059C220.478 183.657 216.731 179.692 214.265 177.921C213.772 177.571 212.667 176.74 211.8 176.058C209.412 174.213 206.592 172.94 204.856 172.94C204.461 172.94 203.672 172.719 203.12 172.462C201.108 171.539 196.907 171.318 194.184 172C193.277 172.221 191.187 173.015 189.548 173.753C187.892 174.509 186.354 175.173 186.116 175.228C185.564 175.394 181.284 178.05 178.897 179.729C177.871 180.466 176.964 181.057 176.885 181.057C176.767 181.057 175.742 181.684 172.802 183.584C171.579 184.358 170.79 184.746 170.001 184.893C169.389 185.022 168.403 185.207 167.811 185.336C167.22 185.447 166.667 185.502 166.608 185.428C166.549 185.373 167.042 185.004 167.713 184.617C168.383 184.229 169.251 183.731 169.626 183.491C170.001 183.27 171.441 182.532 172.802 181.868C178.364 179.175 179.745 178.18 181.935 175.246C183.02 173.826 183.513 172.977 185.821 168.883C187.063 166.651 188.01 164.235 188.168 162.889C188.227 162.39 188.424 161.469 188.622 160.86C188.819 160.251 189.036 159.089 189.095 158.277C189.174 157.465 189.391 156.137 189.588 155.326C189.805 154.515 190.121 153.223 190.318 152.467C190.495 151.71 190.693 151.028 190.733 150.954C190.772 150.881 191.403 151.12 192.133 151.489C192.862 151.859 193.771 152.319 194.165 152.504C194.914 152.854 197.399 153.205 199.313 153.205C200.536 153.205 202.765 152.541 204.107 151.766C205.211 151.12 207.48 148.944 208.821 147.247C210.537 145.052 211.267 143.927 212.785 141.234C213.536 139.869 214.324 138.67 214.502 138.56C214.995 138.282 217.855 139.592 219.098 140.662C219.651 141.142 220.518 141.843 221.051 142.249C221.583 142.636 222.412 143.54 222.925 144.259C223.418 144.96 224.739 146.38 225.844 147.395C227.639 149.054 227.974 149.442 228.96 151.268C231.031 155.068 232.196 158.056 233.123 162.021C233.28 162.667 233.636 163.737 233.912 164.382C234.642 166.08 235.884 169.418 236.575 171.557C236.91 172.554 237.383 173.808 237.64 174.325C237.897 174.822 238.705 176.445 239.415 177.921C240.145 179.396 241.112 181.241 241.605 182.016C243.341 184.838 244.978 188.01 245.708 189.91C246.95 193.157 247.088 193.451 248.252 195.093C250.007 197.583 251.724 199.132 253.716 200.018C256.32 201.18 259.634 201.531 261.311 200.811C263.165 200.037 264.052 198.856 264.368 196.791C264.703 194.558 264.604 193.507 263.855 191.146C263.026 188.527 263.007 188.472 260.896 184.525C259.24 181.426 258.194 179.322 256.932 176.445C256.557 175.579 256.162 174.785 256.083 174.693C256.004 174.582 255.511 173.549 254.998 172.388C254.091 170.321 253.026 168.329 251.901 166.67C251.191 165.618 250.244 163.312 249.87 161.726C248.904 157.687 248.41 155.05 248.212 152.928C247.838 149.091 247.799 148.852 247.108 145.827C246.95 145.163 246.773 144.129 246.694 143.522C246.634 142.913 246.417 141.751 246.221 140.939C246.023 140.127 245.806 139.168 245.727 138.817C245.649 138.467 245.432 137.637 245.234 136.973C245.037 136.309 244.801 135.313 244.741 134.76C244.662 134.206 244.524 133.616 244.445 133.469C244.327 133.248 243.675 130.923 243.36 129.595C243.103 128.488 242.966 128.045 242.65 127.234C242.177 126.035 242.177 125.851 242.63 126.478C242.808 126.754 243.301 127.326 243.715 127.769ZM314.037 175.265C314.924 178.548 315.162 183.122 314.668 187.918C314.451 189.929 314.194 191.718 314.096 191.902C313.997 192.068 313.859 192.622 313.78 193.138C313.681 193.636 313.504 194.374 313.366 194.742C313.228 195.13 313.011 196.127 312.892 196.956C312.675 198.672 312.321 200.018 312.104 200.147C311.946 200.239 310.861 199.575 308.612 198.026C307.942 197.565 306.699 196.754 305.851 196.2C301.432 193.322 299.065 191.551 297.23 189.708C296.126 188.619 294.745 186.867 294.745 186.554C294.745 186.461 295.061 186.405 295.435 186.405C297.23 186.405 300.091 185.04 301.038 183.749C302.083 182.329 302.32 181.407 302.339 178.53C302.339 177.091 302.398 175.874 302.438 175.837C302.497 175.781 303.168 175.892 303.917 176.076C306.206 176.611 307.961 176.703 309.264 176.353C310.526 176.021 312.38 175.136 312.991 174.582C313.544 174.084 313.741 174.213 314.037 175.265ZM316.957 222.834C318.811 222.982 320.763 223.24 321.296 223.388C321.828 223.535 323.15 223.757 324.235 223.868C327.194 224.144 330.685 225.251 332.934 226.616C333.98 227.261 334.315 227.612 335.242 229.087C335.834 230.028 336.425 231.171 336.564 231.614C336.682 232.057 336.918 232.832 337.057 233.349C337.924 236.207 338.24 239.564 337.747 240.726C337.608 241.022 337.392 241.741 337.234 242.331C337.096 242.903 336.781 243.696 336.543 244.083C336.307 244.471 335.676 245.577 335.123 246.536C334.256 248.086 333.368 249.414 333.013 249.672C332.934 249.727 332.598 250.17 332.224 250.687C330.883 252.568 326.937 255.833 322.756 258.489C320.073 260.185 318.929 260.942 318.811 261.09C318.752 261.145 318.219 261.569 317.627 262.03C317.035 262.491 316.128 263.247 315.595 263.727C315.063 264.225 314.53 264.612 314.432 264.612C313.426 264.612 309.047 262.602 306.226 260.85C305.161 260.204 302.892 259.005 301.136 258.175C298.631 256.995 297.704 256.46 296.698 255.574C296.008 254.947 295.041 254.154 294.548 253.786C294.055 253.416 293.207 252.734 292.655 252.273C292.121 251.811 291.49 251.295 291.273 251.129C290.544 250.557 284.113 243.862 283.107 242.607C282.555 241.925 281.785 240.763 281.411 240.025C280.74 238.752 280.72 238.642 280.838 237.222C280.897 236.41 281.174 235.063 281.45 234.233C281.904 232.869 282.081 232.591 283.167 231.559C284.941 229.899 286.421 228.958 289.222 227.759C292.121 226.505 293.029 226.266 300.959 224.642C301.728 224.476 302.911 224.217 303.622 224.033C304.332 223.849 305.358 223.646 305.891 223.59C306.442 223.517 307.764 223.259 308.849 223.019C311.078 222.521 311.907 222.411 312.892 222.503C313.268 222.54 315.102 222.687 316.957 222.834ZM338.141 261.661C338.141 261.919 338.359 262.86 338.614 263.782C339.266 266.107 339.365 267.047 339.128 269.057C338.99 270.312 338.753 271.234 338.22 272.452C337.826 273.355 337.175 274.979 336.76 276.048C335.754 278.649 333.822 282.375 332.756 283.74C332.007 284.662 331.632 284.957 330.37 285.511C329.541 285.898 328.831 286.193 328.772 286.193C328.732 286.193 327.766 286.599 326.661 287.096C323.131 288.646 317.43 289.642 315.24 289.071C314.649 288.923 313.603 288.738 312.892 288.683C311.492 288.536 309.658 287.817 308.573 286.967L307.922 286.451L308.355 285.621C308.612 285.178 309.145 284.33 309.579 283.74C309.993 283.168 310.861 281.453 311.492 279.958C312.538 277.524 312.913 276.399 313.681 273.65L313.899 272.82L314.944 272.875C316.147 272.949 317.883 272.452 319.067 271.676C319.501 271.382 320.488 270.607 321.277 269.925C323.032 268.375 325.931 266.217 327.095 265.572C328.002 265.073 330.429 263.414 332.914 261.588C333.684 261.034 334.906 260.001 335.676 259.3L337.037 258.027L337.589 259.614C337.885 260.481 338.141 261.403 338.141 261.661ZM214.166 288.185C215.251 288.886 216.869 289.845 217.776 290.344C220.084 291.579 227.876 294.992 229.651 295.527C233.833 296.818 237.462 297.813 237.876 297.813C238.153 297.813 238.962 297.961 239.671 298.164C241.684 298.68 242.848 298.939 244.346 299.196C246.556 299.584 246.655 299.639 247.877 301.558C248.489 302.516 248.982 303.365 248.982 303.458C248.982 303.531 249.455 304.324 250.028 305.192C250.619 306.058 251.684 307.829 252.414 309.157C253.578 311.241 254.485 312.606 254.899 312.938C255.116 313.123 257.997 316.738 259.495 318.749C261.764 321.774 262.553 322.972 263.776 325.204C264.387 326.311 266.064 329.262 267.504 331.752C268.964 334.242 270.561 337.009 271.055 337.931C271.548 338.835 272.139 339.868 272.377 340.2C272.633 340.532 273.185 341.491 273.599 342.322C275.02 345.051 276.48 346.158 278.689 346.158C280.957 346.158 282.752 344.406 282.732 342.192C282.732 341.03 282.298 339.665 281.686 338.89C281.431 338.559 281.095 338.042 280.937 337.746C280.779 337.433 280.267 336.585 279.813 335.846C279.34 335.09 278.965 334.445 278.965 334.371C278.965 334.316 278.492 333.468 277.9 332.508C277.328 331.531 276.302 329.779 275.651 328.616C273.56 324.835 273.027 323.95 272.613 323.396C272.377 323.102 271.923 322.253 271.588 321.533C270.877 320.04 269.359 317.678 267.583 315.373C266.912 314.487 266.084 313.344 265.768 312.828C265.453 312.311 264.743 311.389 264.23 310.798C261.942 308.198 260.324 305.911 259.417 303.993C259.18 303.476 258.766 302.757 258.51 302.369C258.135 301.816 258.115 301.687 258.352 301.687C258.529 301.687 260.581 301.852 262.948 302.074C267.287 302.461 267.406 302.461 271.568 301.964C272.002 301.909 273.284 301.779 274.428 301.668C275.572 301.558 277.269 301.374 278.195 301.245L279.892 301.023L280.148 302.609C280.287 303.476 280.503 304.546 280.661 305.007C280.8 305.468 281.076 306.409 281.233 307.128C281.411 307.829 282.022 309.821 282.595 311.555C284.152 316.222 284.449 317.162 284.685 318.379C284.784 318.988 285.021 319.892 285.198 320.408C285.593 321.552 286.816 323.95 287.072 324.097C287.171 324.171 287.486 324.614 287.742 325.112C289.143 327.694 290.465 329.28 293.838 332.398C296.836 335.182 300.544 339.204 304.115 343.556C305.161 344.829 306.699 347.025 307.745 348.722C308.08 349.274 308.731 350.216 309.204 350.788C311.512 353.683 311.985 354.347 312.538 355.399C312.873 356.044 313.346 357.225 313.622 358.036C313.879 358.847 314.411 360.508 314.806 361.725C315.615 364.234 315.989 365.691 316.168 367.166C316.227 367.72 316.325 368.236 316.364 368.292C316.404 368.365 316.305 369.601 316.147 371.058C315.93 373.217 315.733 374.12 315.102 375.836C313.8 379.414 313.524 379.801 309.204 384.099C306.62 386.663 305.279 387.53 302.241 388.526C299.401 389.466 299.44 389.448 295.337 390.057C289.834 390.868 288.394 390.739 281.332 388.821C279.478 388.323 278.037 387.474 276.697 386.128C276.006 385.427 275.217 384.504 274.961 384.081C274.685 383.656 273.56 382.107 272.475 380.631C271.371 379.156 269.753 376.961 268.865 375.744C267.998 374.526 266.814 372.995 266.241 372.331C265.69 371.667 264.881 370.708 264.486 370.21C263.56 369.048 259.101 364.639 256.774 362.574C255.807 361.707 254.446 360.49 253.795 359.881C253.125 359.272 251.625 357.981 250.461 357.021C247.168 354.292 245.135 352.042 243.892 349.699C243.696 349.311 242.966 347.965 242.295 346.692C241.624 345.419 240.993 344.24 240.875 344.055C240.756 343.87 240.481 343.372 240.243 342.949C240.026 342.524 239.454 341.638 239.001 340.974C238.133 339.721 233.398 331.088 233.398 330.775C233.398 330.387 231.723 327.03 229.671 323.36C229.375 322.843 228.823 321.774 228.409 320.962C228.014 320.15 227.106 318.564 226.397 317.457C225.705 316.332 224.759 314.728 224.305 313.86C223.851 312.994 223.024 311.499 222.451 310.54C221.859 309.582 221.228 308.419 221.051 307.958C220.636 306.98 218.348 303.143 217.717 302.332C217.185 301.668 215.843 299.049 215.271 297.555C215.034 296.965 214.62 296.117 214.363 295.692C214.088 295.268 213.693 294.438 213.476 293.848C213.259 293.257 212.865 292.428 212.608 292.022C212.352 291.597 212.036 290.933 211.897 290.528C211.76 290.122 211.405 289.292 211.109 288.683C210.123 286.728 209.334 285.049 209.334 284.957C209.334 284.92 209.984 285.345 210.773 285.898C211.543 286.469 213.082 287.503 214.166 288.185ZM113.29 364.806C113.665 365.027 114.079 365.34 114.237 365.47C114.395 365.617 115.144 366.097 115.914 366.576C116.683 367.037 117.768 367.738 118.3 368.126C118.852 368.513 119.385 368.9 119.484 368.974C119.879 369.233 121.457 370.449 122.048 370.929C122.383 371.206 123.271 371.759 124.02 372.183C124.79 372.608 125.717 373.161 126.092 373.438C126.467 373.715 127.414 374.36 128.182 374.839C128.952 375.338 130.234 376.279 131.023 376.943C131.793 377.607 133.489 379.008 134.751 380.078C136.014 381.148 137.493 382.31 138.026 382.66C138.558 383.011 139.387 383.583 139.88 383.914C140.374 384.265 141.537 385.003 142.464 385.575C143.391 386.146 144.338 386.774 144.574 386.958C145.521 387.732 149.151 389.724 151.242 390.61C155.207 392.307 158.599 393.358 163.274 394.373C165.267 394.815 166.983 395.203 168.009 395.479C168.561 395.627 169.35 395.775 169.784 395.848C170.612 395.959 172.308 396.347 173.887 396.789C174.4 396.937 175.426 397.139 176.155 397.232C176.885 397.324 177.95 397.527 178.542 397.693C179.469 397.932 181.935 398.173 187.635 398.615C188.346 398.67 189.154 398.763 189.451 398.8C189.727 398.837 191.502 398.745 193.395 398.596C195.269 398.431 197.656 398.283 198.682 398.265C199.707 398.228 201.049 398.154 201.641 398.061L202.725 397.932L205.092 400.165C207.302 402.249 209.471 403.891 211.109 404.757C211.503 404.942 212.608 405.403 213.574 405.772C215.054 406.325 215.705 406.455 217.421 406.547C220.656 406.749 223.99 406.141 226.179 404.978C228.23 403.891 232.906 400.884 234.01 399.924C234.72 399.297 236.003 398.283 236.87 397.675C237.718 397.047 238.981 396.088 239.632 395.554C243.321 392.547 243.044 392.713 244.346 392.676C245.392 392.639 246.852 392.565 250.56 392.344C255.57 392.067 262.119 389.762 265.058 387.235L266.104 386.349L266.577 386.958C266.834 387.272 267.485 388.175 268.017 388.931C268.549 389.687 269.279 390.665 269.654 391.108C270.029 391.532 270.306 391.92 270.266 391.957C269.753 392.381 264.25 395.664 262.198 396.77C253.46 401.474 242.768 405.458 233.991 407.284C233.833 407.321 233.261 407.45 232.708 407.561C223.773 409.516 213.121 410.402 203.85 409.977C201.285 409.867 198.918 409.738 198.583 409.683C198.268 409.646 197.498 409.571 196.907 409.516C194.993 409.35 193.672 409.203 192.567 409.037C191.975 408.944 191.088 408.815 190.594 408.76C189.391 408.612 185.544 407.967 184.578 407.746C177.832 406.233 174.044 405.237 169.882 403.891C155.443 399.187 141.576 391.717 129.84 382.328C123.409 377.164 116.722 370.653 111.752 364.694L110.055 362.684L111.357 363.515C112.067 363.994 112.935 364.565 113.29 364.806ZM281.174 397.896C281.411 398.375 281.529 399.095 281.529 400.091C281.529 400.902 281.667 401.936 281.825 402.396C281.983 402.858 282.239 403.965 282.397 404.886C282.574 405.791 282.831 407.007 283.009 407.561C283.325 408.612 283.64 410.992 283.995 415.123C284.409 420.012 284.488 421.726 284.586 426.375C284.626 429.271 284.705 432.627 284.744 433.845C284.784 435.062 284.705 437.183 284.567 438.549C284.35 440.946 284.468 445.244 284.784 446.222C284.863 446.443 284.823 446.793 284.705 446.978C284.606 447.181 284.409 447.845 284.31 448.435C283.817 451.036 283.521 452.18 283.068 453.397C282.18 455.702 281.924 456.717 281.707 458.746C281.589 459.834 281.371 461.07 281.214 461.475C281.056 461.881 280.622 465.257 280.247 468.964C279.872 472.672 279.438 476.121 279.281 476.619C279.123 477.136 278.847 478.999 278.669 480.769C278.294 484.772 277.564 487.594 276.716 488.423C276.499 488.645 275.651 489.032 274.862 489.254C273.086 489.77 271.588 490.564 269.675 492.039C268.885 492.648 267.781 493.293 267.228 493.496C266.695 493.681 265.393 494.141 264.368 494.511C263.342 494.879 262.178 495.377 261.803 495.618C260.403 496.503 257.523 497.794 256.182 498.126C255.432 498.31 253.775 498.568 252.532 498.679C251.29 498.809 250.205 498.938 250.146 498.956C250.087 498.993 249.159 499.122 248.075 499.214C247.01 499.324 245.905 499.454 245.628 499.491C244.346 499.694 241.585 499.823 237.245 499.878C232.472 499.951 231.17 500.025 227.58 500.358C226.494 500.45 221.13 500.56 215.646 500.597C210.163 500.634 204.659 500.709 203.416 500.764C200.812 500.856 189.213 499.97 187.537 499.528C186.097 499.14 185.466 499.067 179.153 498.568C177.221 498.403 175.584 498.126 171.954 497.296C171.302 497.148 170.336 496.983 169.784 496.927C169.251 496.854 168.127 496.65 167.279 496.447C166.45 496.263 165.484 496.096 165.149 496.096C164.813 496.096 163.847 495.931 163.018 495.747C161.677 495.414 158.363 495.046 153.905 494.713C153.096 494.658 152.11 494.566 151.716 494.511L150.986 494.419L150.868 492.999C150.788 492.223 150.788 491.246 150.847 490.84C150.927 490.435 150.828 489.475 150.67 488.719C150.512 487.963 150.315 486.838 150.256 486.229C150.177 485.62 150.078 484.864 150.019 484.568C149.98 484.255 149.9 483.351 149.862 482.54C149.723 480.086 149.605 478.888 149.408 478.021C149.289 477.559 149.151 476.785 149.073 476.287C148.934 475.291 147.908 472.654 147.198 471.473C145.58 468.78 143.391 466.437 140.018 463.8C139.703 463.56 138.953 462.952 138.341 462.472C137.73 461.974 136.625 461.199 135.876 460.756C134.495 459.908 127.374 456.441 127.039 456.441C126.94 456.441 126.131 456.145 125.244 455.776C124.356 455.407 123.054 454.909 122.345 454.688C116.9 452.917 116.821 452.88 115.283 451.017C113.783 449.21 112.264 446.59 111.475 444.414C111.022 443.105 111.001 442.717 111.436 442.311C111.731 442.053 112.047 442.016 113.862 442.127C115.006 442.2 116.249 442.292 116.624 442.33C116.998 442.367 117.709 442.441 118.202 442.496C118.695 442.551 119.523 442.717 120.056 442.883C120.588 443.031 121.24 443.16 121.495 443.16C121.752 443.16 122.64 443.326 123.488 443.547C124.317 443.75 125.539 444.063 126.19 444.211C127.67 444.562 131.004 445.705 133.094 446.554C133.962 446.923 134.811 447.218 134.968 447.218C135.146 447.218 136.113 447.476 137.138 447.789C138.164 448.103 139.19 448.398 139.427 448.435C140.077 448.546 142.701 449.597 143.036 449.873C143.687 450.409 148.5 452.788 154.338 455.481C157.673 457.03 160.454 458.284 160.513 458.284C160.572 458.284 161.578 458.617 162.742 459.004C167.634 460.701 170.001 461.438 170.652 461.531C175.071 462.066 178.444 462.01 182.901 461.328C185.564 460.903 186.452 460.701 187.793 460.11C189.233 459.483 192.094 457.898 192.37 457.565C192.429 457.491 193.395 456.735 194.539 455.869C199.017 452.419 200.517 450.353 202.114 445.355C202.567 443.916 202.943 441.297 202.883 439.932C202.824 438.29 202.35 435.303 201.936 433.845C201.404 431.963 199.688 427.906 199.017 426.928C198.781 426.578 198.445 426.08 198.287 425.822C196.808 423.332 195.723 422.059 192.705 419.218L190.299 416.95L191.284 417.078C191.837 417.134 192.449 417.226 192.666 417.263C193.041 417.337 197.38 417.724 200.359 417.983C201.128 418.038 203.968 418.112 206.67 418.149C213.574 418.241 218.644 417.964 224.819 417.134C228.862 416.599 228.704 416.617 231.919 416.008C247.897 413.021 263.204 406.768 276.4 397.84L278.275 396.568L279.557 396.882C280.72 397.158 280.859 397.25 281.174 397.896Z" fill="#593D31"/>
</svg>
